<svg width="17" height="17" viewBox="0 0 17 17" fill="none" xmlns="http://www.w3.org/2000/svg">
<path fill-rule="evenodd" clip-rule="evenodd" d="M2.33435 6.82853C2.33435 4.03907 4.59565 1.77777 7.38509 1.77777C10.1745 1.77777 12.4358 4.03907 12.4358 6.82853C12.4358 8.20355 11.8864 9.45024 10.995 10.361C10.9813 10.3729 10.9679 10.3853 10.9549 10.3984C10.9419 10.4114 10.9294 10.4248 10.9175 10.4385C10.0068 11.3298 8.7601 11.8793 7.38509 11.8793C4.59565 11.8793 2.33435 9.618 2.33435 6.82853ZM11.4566 11.9607C10.3386 12.8488 8.9238 13.3793 7.38509 13.3793C3.76721 13.3793 0.834351 10.4464 0.834351 6.82853C0.834351 3.21065 3.76721 0.277771 7.38509 0.277771C11.003 0.277771 13.9358 3.21065 13.9358 6.82853C13.9358 8.36725 13.4053 9.78205 12.5172 10.9L16.6155 14.9984C16.9084 15.2913 16.9084 15.7661 16.6155 16.059C16.3227 16.3519 15.8478 16.3519 15.5549 16.059L11.4566 11.9607Z" fill="#242533"/>
</svg>
